<?xml version="1.0" encoding="UTF-8"?>
<!DOCTYPE svg PUBLIC "-//W3C//DTD SVG 1.1//EN" "http://www.w3.org/Graphics/SVG/1.1/DTD/svg11.dtd">
<!-- Creator: CorelDRAW -->
<svg xmlns="http://www.w3.org/2000/svg" xml:space="preserve" width="2048px" height="2048px" style="shape-rendering:geometricPrecision; text-rendering:geometricPrecision; image-rendering:optimizeQuality; fill-rule:evenodd; clip-rule:evenodd"
viewBox="0 0 2048 2048"
 xmlns:xlink="http://www.w3.org/1999/xlink">
 <defs>
  <style type="text/css">
   <![CDATA[
    .fil8 {fill:none}
    .fil0 {fill:#4C4C4C}
    .fil2 {fill:#5D5D5D}
    .fil1 {fill:#7E7E7E}
    .fil6 {fill:#A4A4A5}
    .fil4 {fill:#B7B7B7}
    .fil3 {fill:#D4D4D4}
    .fil7 {fill:#DEDEDE}
    .fil5 {fill:#ECECEC}
   ]]>
  </style>
 </defs>
 <g id="Layer_x0020_1">
  <metadata id="CorelCorpID_0Corel-Layer"/>
  <g id="_307572736">
   <rect id="_459940136" class="fil0" x="1342.36" y="1437.94" width="192.424" height="354.061"/>
   <polygon id="_459939968" class="fil1" points="302.296,932.346 1131.45,932.346 1162.17,932.346 1162.17,963.068 1162.17,1761.28 1162.17,1792 1131.45,1792 302.296,1792 271.575,1792 271.575,1761.28 271.575,963.068 271.575,932.346 "/>
   <path id="_459939800" class="fil2" d="M1776.43 286.72l0 1474.56 0 30.7205 -30.7217 0 -215.373 0 0 -30.7205 0 -276.481 0 -30.7217 -30.7205 0 -122.211 0 -30.7217 0 0 30.7217 0 276.481 0 30.7205 -215.23 0 -30.7205 0 0 -30.7205 0 -1204.55 4.80118 -16.3193c63.2067,-100.784 149.47,-172.171 257.918,-218.325 106.721,-45.4193 234.388,-66.0827 382.258,-66.0827l30.7217 0 0 30.7205z"/>
   <polygon id="_459939632" class="fil3" points="424.745,1208.32 547.627,1208.32 547.627,1269.77 424.745,1269.77 "/>
   <polygon id="_459939464" class="fil4" points="424.745,1331.21 547.627,1331.21 547.627,1392.65 424.745,1392.65 "/>
   <polygon id="_459939296" class="fil3" points="424.745,1454.09 547.627,1454.09 547.627,1515.53 424.745,1515.53 "/>
   <polygon id="_459939128" class="fil3" points="639.786,1085.44 793.385,1085.44 793.385,1146.88 639.786,1146.88 "/>
   <polygon id="_459938960" class="fil3" points="639.786,1208.32 793.385,1208.32 793.385,1269.77 639.786,1269.77 "/>
   <polygon id="_459938792" class="fil3" points="639.786,1331.21 793.385,1331.21 793.385,1392.65 639.786,1392.65 "/>
   <polygon id="_459938624" class="fil5" points="639.786,1454.09 793.385,1454.09 793.385,1515.53 639.786,1515.53 "/>
   <polygon id="_459938456" class="fil3" points="885.544,1085.44 1008.42,1085.44 1008.42,1146.88 885.544,1146.88 "/>
   <polygon id="_459938288" class="fil6" points="885.544,1208.32 1008.42,1208.32 1008.42,1269.77 885.544,1269.77 "/>
   <polygon id="_459938120" class="fil3" points="885.544,1331.21 1008.42,1331.21 1008.42,1392.65 885.544,1392.65 "/>
   <polygon id="_459937952" class="fil3" points="885.544,1454.09 1008.42,1454.09 1008.42,1515.53 885.544,1515.53 "/>
   <polygon id="_459937784" class="fil3" points="424.745,1576.96 547.627,1576.96 547.627,1638.4 424.745,1638.4 "/>
   <polygon id="_459937616" class="fil3" points="639.786,1576.96 793.385,1576.96 793.385,1638.4 639.786,1638.4 "/>
   <polygon id="_459937448" class="fil3" points="885.544,1576.96 1008.42,1576.96 1008.42,1638.4 885.544,1638.4 "/>
   <polygon id="_307578328" class="fil3" points="424.745,1085.44 547.627,1085.44 547.627,1146.88 424.745,1146.88 "/>
   <polygon id="_307578184" class="fil7" points="1346.35,716.817 1407.79,716.817 1407.79,778.258 1346.35,778.258 "/>
   <polygon id="_307578016" class="fil7" points="1469.23,716.817 1530.66,716.817 1530.66,778.258 1469.23,778.258 "/>
   <polygon id="_307577848" class="fil7" points="1592.11,716.817 1653.55,716.817 1653.55,778.258 1592.11,778.258 "/>
   <polygon id="_307577680" class="fil7" points="1223.47,839.701 1284.91,839.701 1284.91,901.142 1223.47,901.142 "/>
   <polygon id="_307577512" class="fil7" points="1223.47,962.584 1284.91,962.584 1284.91,1024.02 1223.47,1024.02 "/>
   <polygon id="_307577344" class="fil7" points="1223.47,1085.47 1284.91,1085.47 1284.91,1146.91 1223.47,1146.91 "/>
   <polygon id="_307577176" class="fil7" points="1223.47,1208.35 1284.91,1208.35 1284.91,1269.79 1223.47,1269.79 "/>
   <polygon id="_307577008" class="fil7" points="1346.35,839.701 1407.79,839.701 1407.79,901.142 1346.35,901.142 "/>
   <polygon id="_307576840" class="fil7" points="1346.35,962.584 1407.79,962.584 1407.79,1024.02 1346.35,1024.02 "/>
   <polygon id="_307576672" class="fil7" points="1346.35,1085.47 1407.79,1085.47 1407.79,1146.91 1346.35,1146.91 "/>
   <polygon id="_307576504" class="fil7" points="1346.35,1208.35 1407.79,1208.35 1407.79,1269.79 1346.35,1269.79 "/>
   <polygon id="_307576336" class="fil7" points="1346.35,1331.22 1407.79,1331.22 1407.79,1392.66 1346.35,1392.66 "/>
   <polygon id="_307576168" class="fil7" points="1469.23,839.701 1530.66,839.701 1530.66,901.142 1469.23,901.142 "/>
   <polygon id="_307576000" class="fil7" points="1469.23,962.584 1530.66,962.584 1530.66,1024.02 1469.23,1024.02 "/>
   <polygon id="_307575832" class="fil7" points="1469.23,1085.47 1530.66,1085.47 1530.66,1146.91 1469.23,1146.91 "/>
   <polygon id="_307575664" class="fil7" points="1469.23,1208.35 1530.66,1208.35 1530.66,1269.79 1469.23,1269.79 "/>
   <polygon id="_307575496" class="fil7" points="1469.23,1331.22 1530.66,1331.22 1530.66,1392.66 1469.23,1392.66 "/>
   <polygon id="_307575328" class="fil7" points="1592.11,839.701 1653.55,839.701 1653.55,901.142 1592.11,901.142 "/>
   <polygon id="_307575160" class="fil7" points="1592.11,962.584 1653.55,962.584 1653.55,1024.02 1592.11,1024.02 "/>
   <polygon id="_307574992" class="fil7" points="1592.11,1085.47 1653.55,1085.47 1653.55,1146.91 1592.11,1146.91 "/>
   <polygon id="_307574824" class="fil7" points="1592.11,1208.35 1653.55,1208.35 1653.55,1269.79 1592.11,1269.79 "/>
   <polygon id="_307574656" class="fil7" points="1223.47,1331.22 1284.91,1331.22 1284.91,1392.66 1223.47,1392.66 "/>
   <polygon id="_307574488" class="fil7" points="1223.47,1454.09 1284.91,1454.09 1284.91,1515.53 1223.47,1515.53 "/>
   <polygon id="_307574320" class="fil7" points="1223.47,1576.96 1284.91,1576.96 1284.91,1638.4 1223.47,1638.4 "/>
   <polygon id="_307574152" class="fil7" points="1592.11,1331.22 1653.55,1331.22 1653.55,1392.66 1592.11,1392.66 "/>
   <polygon id="_307573984" class="fil7" points="1592.11,1454.09 1653.55,1454.09 1653.55,1515.53 1592.11,1515.53 "/>
   <polygon id="_307573816" class="fil7" points="1592.11,1576.96 1653.55,1576.96 1653.55,1638.4 1592.11,1638.4 "/>
   <polygon id="_307573648" class="fil7" points="1346.35,593.917 1407.79,593.917 1407.79,655.358 1346.35,655.358 "/>
   <polygon id="_307573480" class="fil7" points="1469.23,593.917 1530.66,593.917 1530.66,655.358 1469.23,655.358 "/>
   <polygon id="_307573312" class="fil7" points="1592.11,593.917 1653.55,593.917 1653.55,655.358 1592.11,655.358 "/>
   <polygon id="_307573144" class="fil7" points="1469.23,471.038 1530.66,471.038 1530.66,532.479 1469.23,532.479 "/>
   <polygon id="_307572976" class="fil7" points="1592.11,471.038 1653.55,471.038 1653.55,532.479 1592.11,532.479 "/>
   <polygon id="_307572808" class="fil7" points="1223.47,716.817 1284.91,716.817 1284.91,778.258 1223.47,778.258 "/>
  </g>
  <rect class="fil8" width="2048" height="2048"/>
 </g>
</svg>
