<?xml version="1.0" encoding="UTF-8"?>
<!DOCTYPE svg PUBLIC "-//W3C//DTD SVG 1.1//EN" "http://www.w3.org/Graphics/SVG/1.1/DTD/svg11.dtd">
<!-- Creator: CorelDRAW -->
<svg xmlns="http://www.w3.org/2000/svg" xml:space="preserve" width="2048px" height="2048px" style="shape-rendering:geometricPrecision; text-rendering:geometricPrecision; image-rendering:optimizeQuality; fill-rule:evenodd; clip-rule:evenodd"
viewBox="0 0 2048 2048"
 xmlns:xlink="http://www.w3.org/1999/xlink">
 <defs>
  <style type="text/css">
   <![CDATA[
    .fil3 {fill:none}
    .fil2 {fill:#414141}
    .fil1 {fill:#9B9B9C}
    .fil0 {fill:#D1D1D1}
   ]]>
  </style>
 </defs>
 <g id="Layer_x0020_1">
  <metadata id="CorelCorpID_0Corel-Layer"/>
  <g id="_460108696">
   <path id="_460109104" class="fil0" d="M1776.59 501.8l-1229.71 -8.49213 0 833.194c-357.385,-121.125 -365.225,472.094 -29.7414,465.472 419.737,-8.28544 839.636,0 1259.45,0l0 -1290.17z"/>
   <path id="_460108936" class="fil1" d="M547.678 1335.59l0 -1075.92c-125.326,-22.5012 -272.753,59.6351 -275.561,194.237l-0.427559 20.4803 -0.27874 1085.27 0.587008 0.633071c0.205512,0.220866 0.00826772,-0.61063 0.0129921,-0.912993 1.0063,-64.6831 22.8851,-130.275 69.0508,-175.923 57.5351,-56.8937 133.22,-65.5016 206.616,-47.8642z"/>
   <path id="_460108768" class="fil2" d="M1039.35 686.111l0 248.335 -61.4386 0 0 -248.335 -275.906 0 0 430.056 275.906 0 0 -62.2997 61.4386 0 0 186.038 -61.4386 0 0 -62.2997 -275.906 0 0 430.056 275.906 0 0 -248.336 61.4386 0 0 248.336 552.93 0 0 -430.057 -337.903 0 -30.7193 0 0 -30.7193 0 -92.1544 61.4386 0 0 61.4351 307.184 0 0 -430.055 -307.181 0 0 155.319 -61.4386 0 0 -155.319 -184.31 0zm-368.064 -61.4386l951.713 0 30.7193 0 0 30.7193 0 982.99 0 30.7181 -30.7193 0 -951.713 0 -30.7193 0 0 -30.7181 0 -982.99 0 -30.7193 30.7193 0z"/>
  </g>
  <rect class="fil3" width="2048" height="2048"/>
 </g>
</svg>
