<?xml version="1.0" encoding="UTF-8"?>
<!DOCTYPE svg PUBLIC "-//W3C//DTD SVG 1.1//EN" "http://www.w3.org/Graphics/SVG/1.1/DTD/svg11.dtd">
<!-- Creator: CorelDRAW -->
<svg xmlns="http://www.w3.org/2000/svg" xml:space="preserve" width="2048px" height="2048px" style="shape-rendering:geometricPrecision; text-rendering:geometricPrecision; image-rendering:optimizeQuality; fill-rule:evenodd; clip-rule:evenodd"
viewBox="0 0 2048 2048"
 xmlns:xlink="http://www.w3.org/1999/xlink">
 <defs>
  <style type="text/css">
   <![CDATA[
    .fil5 {fill:none}
    .fil3 {fill:#414141;fill-rule:nonzero}
    .fil2 {fill:gray;fill-rule:nonzero}
    .fil1 {fill:darkgray;fill-rule:nonzero}
    .fil4 {fill:#B3B4B4;fill-rule:nonzero}
    .fil0 {fill:#C3C3C3;fill-rule:nonzero}
   ]]>
  </style>
 </defs>
 <g id="Layer_x0020_1">
  <metadata id="CorelCorpID_0Corel-Layer"/>
  <g id="_459767696">
   <path id="_459766808" class="fil0" d="M1022.91 255.999c0.368504,0 0.720473,0.0200788 1.08898,0.0212599 0.368504,-0.0011811 0.720473,-0.0212599 1.08898,-0.0212599 185.156,-0.100394 384.966,383.34 449.484,656.702 25.2225,106.87 20.498,181.994 -91.2473,219.082 -104.757,34.7705 -315.299,78.939 -359.326,81.5304 -44.0268,-2.59134 -254.569,-46.7599 -359.326,-81.5304 -111.745,-37.0878 -116.47,-112.212 -91.2473,-219.082 64.5178,-273.362 264.329,-656.802 449.484,-656.702z"/>
   <path id="_459767048" class="fil1" d="M1255.94 1167.18c-97.4079,23.8465 -202.331,44.3953 -231.942,46.1363 -29.6103,-1.74095 -134.534,-22.2898 -231.942,-46.1363l231.942 -468.593 231.942 468.593z"/>
   <path id="_459767192" class="fil2" d="M991.886 1011.07c0,-17.0929 13.8591,-30.952 30.952,-30.952 17.0941,0 30.952,13.8591 30.952,30.952l0 373.65c0,17.0941 -13.8579,30.952 -30.952,30.952 -17.0929,0 -30.952,-13.8579 -30.952,-30.952l0 -373.65z"/>
   <path id="_459767408" class="fil3" d="M1119.57 1327.49c-1.2874,0.168898 -2.60197,0.259843 -3.93544,0.266929l0 371.412c0,25.5591 -10.4339,48.7748 -27.2433,65.5843 -16.8083,16.8095 -40.0252,27.2433 -65.5843,27.2433l-0.0011811 0c-25.5591,0 -48.776,-10.4339 -65.5855,-27.2433 -16.8083,-16.8095 -27.2433,-40.0252 -27.2433,-65.5843l0 -371.412c-1.31339,-0.00944883 -2.60788,-0.100394 -3.87638,-0.266929l193.469 0z"/>
   <path id="_459767600" class="fil4" d="M960.936 1269.27l123.754 0 30.952 0 0 0.00354331c17.0209,0.0838583 30.7961,13.9087 30.7961,30.9508 0,15.7063 -11.7012,28.6795 -26.8618,30.6815l-193.469 0c-15.1642,-1.99961 -26.8666,-14.974 -26.8666,-30.6815 0,-17.0244 13.7445,-30.8386 30.7429,-30.9508l0 -0.00354331 30.9532 0z"/>
  </g>
  <rect class="fil5" width="2048" height="2048"/>
 </g>
</svg>
